<?xml version="1.0" encoding="UTF-8" standalone="no"?>
<!-- Created with Inkscape (http://www.inkscape.org/) -->

<svg
   xmlns:dc="http://purl.org/dc/elements/1.1/"
   xmlns:cc="http://creativecommons.org/ns#"
   xmlns:rdf="http://www.w3.org/1999/02/22-rdf-syntax-ns#"
   xmlns:svg="http://www.w3.org/2000/svg"
   xmlns="http://www.w3.org/2000/svg"
   xmlns:sodipodi="http://sodipodi.sourceforge.net/DTD/sodipodi-0.dtd"
   xmlns:inkscape="http://www.inkscape.org/namespaces/inkscape"
   version="1.1"
   width="744.09448"
   height="1052.3622"
   id="svg5105"
   inkscape:version="0.48.2 r9819"
   sodipodi:docname="cloudy.svg">
  <sodipodi:namedview
     pagecolor="#ffffff"
     bordercolor="#666666"
     borderopacity="1"
     objecttolerance="10"
     gridtolerance="10"
     guidetolerance="10"
     inkscape:pageopacity="0"
     inkscape:pageshadow="2"
     inkscape:window-width="1366"
     inkscape:window-height="706"
     id="namedview10"
     showgrid="false"
     inkscape:zoom="0.53861372"
     inkscape:cx="-29.222794"
     inkscape:cy="602.17223"
     inkscape:window-x="-8"
     inkscape:window-y="-8"
     inkscape:window-maximized="1"
     inkscape:current-layer="svg5105" />
  <defs
     id="defs5107" />
  <metadata
     id="metadata5110">
    <rdf:RDF>
      <cc:Work
         rdf:about="">
        <dc:format>image/svg+xml</dc:format>
        <dc:type
           rdf:resource="http://purl.org/dc/dcmitype/StillImage" />
        <dc:title />
      </cc:Work>
    </rdf:RDF>
  </metadata>
  <g
     id="g4042">
    <path
       id="path3794"
       d="m 488.77755,304.12322 c 0,0 -9.09978,20.15093 -18.21875,20.4375 -9.11897,0.28658 -19.4375,-19.25 -19.4375,-19.25 0,0 -3.80129,21.76714 -12.5625,24.3125 -8.76122,2.54537 -23.65625,-13.78125 -23.65625,-13.78125 0,0 1.7592,22.01203 -6.09375,26.65625 -7.85296,4.64423 -26.34375,-7.46875 -26.34375,-7.46875 0,0 7.17002,20.89248 0.71875,27.34375 -6.45127,6.45127 -27.375,-0.6875 -27.375,-0.6875 0,0 12.14423,18.45955 7.5,26.3125 -4.64422,7.85296 -26.6875,6.125 -26.6875,6.125 0,0 16.35787,14.86378 13.8125,23.625 -2.54537,8.76121 -24.3125,12.5625 -24.3125,12.5625 0,0 19.53658,10.34978 19.25,19.46875 -0.28657,9.11897 -20.4375,18.21875 -20.4375,18.21875 0,0 21.47853,5.15875 23.46875,14.0625 1.99023,8.90374 -15.25,22.71875 -15.25,22.71875 0,0 22.10803,-0.34783 26.25,7.78125 4.14197,8.12907 -9.125,25.8125 -9.125,25.8125 0,0 21.3103,-5.84362 27.34375,1 6.03346,6.84361 -2.4375,27.25 -2.4375,27.25 0,0 19.20415,-10.94065 26.75,-5.8125 7.54584,5.12816 4.4375,27 4.4375,27 0,0 15.8534,-15.37171 24.4375,-12.28125 8.5841,3.09047 11.03125,25.0625 11.03125,25.0625 0,0 11.54202,-18.85859 20.625,-18 9.08298,0.8586 16.90625,21.53125 16.90625,21.53125 0,0 6.48885,-21.10402 15.5,-22.53125 9.01114,-1.42722 21.71875,16.65625 21.71875,16.65625 0,0 1.03314,-22.09538 9.40625,-25.71875 8.37311,-3.62337 25.1875,10.75 25.1875,10.75 0,0 -4.49021,-21.65816 2.71875,-27.25 7.20895,-5.59183 27.0625,4.125 27.0625,4.125 0,0 -9.71684,-19.82229 -4.125,-27.03125 5.59184,-7.20896 27.21875,-2.75 27.21875,-2.75 0,0 -14.34212,-16.78314 -10.71875,-25.15625 3.62336,-8.37311 25.6875,-9.4375 25.6875,-9.4375 0,0 -18.08347,-12.70761 -16.65625,-21.71875 1.42722,-9.01115 22.5625,-15.5 22.5625,-15.5 0,0 -20.67266,-7.82327 -21.53125,-16.90625 -0.85859,-9.08298 17.96875,-20.625 17.96875,-20.625 0,0 -21.94079,-2.4159 -25.03125,-11 -3.09047,-8.5841 12.28125,-24.46875 12.28125,-24.46875 0,0 -21.87185,3.1396 -27,-4.40625 -5.12815,-7.54584 5.8125,-26.75 5.8125,-26.75 0,0 -20.43763,8.43971 -27.28125,2.40625 -6.84362,-6.03346 -1,-27.34375 -1,-27.34375 0,0 -17.68343,13.26697 -25.8125,9.125 -8.12907,-4.14197 -7.78125,-26.21875 -7.78125,-26.21875 0,0 -13.815,17.24022 -22.71875,15.25 -8.90375,-1.99023 -14.0625,-23.5 -14.0625,-23.5 z"
       style="fill:#ffff00;fill-opacity:1;stroke:#000000;stroke-width:8;stroke-miterlimit:4;stroke-dasharray:none"
       inkscape:connector-curvature="0" />
    <path
       id="path3792"
       d="m 474.94139,347.53861 c -58.11111,0 -105.3619,46.4662 -106.59375,104.28125 5.74301,-48.63892 47.13113,-86.375 97.3125,-86.375 54.10922,0 97.96875,43.89078 97.96875,98 0,50.27765 -37.88218,91.66865 -86.65625,97.28125 57.94609,-1.08447 104.59375,-48.38855 104.59375,-106.59375 0,-58.88483 -47.74017,-106.59375 -106.625,-106.59375 z"
       style="fill:#ffffff;fill-opacity:1;stroke:none"
       inkscape:connector-curvature="0" />
    <path
       inkscape:connector-curvature="0"
       id="path3797"
       d="m 489.94139,291.81986 -4.8125,10.65625 c 0,0 -2.18554,4.79253 -5.375,9.53125 -1.59473,2.36936 -3.43237,4.69544 -5.1875,6.28125 -1.75513,1.58581 -3.29539,2.25518 -4.125,2.28125 -0.82991,0.0261 -2.43308,-0.55971 -4.28125,-2.03125 -1.84817,-1.47154 -3.82576,-3.67368 -5.5625,-5.9375 -3.47348,-4.52764 -5.9375,-9.15625 -5.9375,-9.15625 l -5.46875,-10.34375 -2,11.53125 c 0,0 -0.9334,5.1518 -2.84375,10.53125 -0.95517,2.68972 -2.16339,5.40382 -3.46875,7.375 -1.30536,1.97118 -2.63954,3.01817 -3.4375,3.25 -0.79856,0.232 -2.49534,0.0578 -4.65625,-0.90625 -2.16091,-0.96408 -4.62449,-2.58614 -6.875,-4.34375 -4.50102,-3.51522 -8.0625,-7.40625 -8.0625,-7.40625 l -7.875,-8.625 0.9375,11.65625 c 0,0 0.41219,5.22553 -0.0937,10.90625 -0.25297,2.84036 -0.75966,5.76856 -1.53125,8 -0.77159,2.23144 -1.78475,3.577 -2.5,4 -0.71547,0.42313 -2.41688,0.67793 -4.75,0.28125 -2.33312,-0.39668 -5.13263,-1.35685 -7.75,-2.5 -5.23473,-2.2863 -9.625,-5.15625 -9.625,-5.15625 l -9.78125,-6.40625 3.8125,11.03125 c 0,0 1.67289,4.96309 2.59375,10.59375 0.46043,2.81533 0.72433,5.77057 0.53125,8.125 -0.19308,2.35443 -0.88122,3.91247 -1.46875,4.5 -0.58753,0.58753 -2.14148,1.27312 -4.5,1.46875 -2.35852,0.19563 -5.30539,-0.0431 -8.125,-0.5 -5.63922,-0.91377 -10.625,-2.59375 -10.625,-2.59375 l -11.06255,-3.78125 6.4375,9.75 c 0,0 2.86306,4.3985 5.15625,9.625 1.14659,2.61325 2.13242,5.42083 2.53125,7.75 0.39883,2.32917 0.14147,4.00398 -0.28125,4.71875 -0.42259,0.71456 -1.76454,1.72544 -4,2.5 -2.23546,0.77456 -5.15527,1.27457 -8,1.53125 -5.68946,0.51337 -10.9375,0.125 -10.9375,0.125 l -11.65625,-0.90625 8.65625,7.84375 c 0,0 3.88417,3.56933 7.40625,8.0625 1.76104,2.24659 3.37781,4.71772 4.34375,6.875 0.96594,2.15728 1.13782,3.82794 0.90625,4.625 -0.23183,0.79796 -1.27882,2.13214 -3.25,3.4375 -1.97118,1.30536 -4.68528,2.51358 -7.375,3.46875 -5.37945,1.91035 -10.53125,2.84375 -10.53125,2.84375 l -11.5,2 10.3125,5.46875 c 0,0 4.62788,2.45616 9.15625,5.9375 2.26419,1.74067 4.46522,3.74224 5.9375,5.59375 1.47228,1.85151 2.05733,3.45141 2.03125,4.28125 -0.0261,0.82961 -0.69544,2.36987 -2.28125,4.125 -1.58581,1.75513 -3.91189,3.59277 -6.28125,5.1875 -4.73872,3.18946 -9.53125,5.375 -9.53125,5.375 l -10.65625,4.8125 11.375,2.71875 c 0,0 5.0967,1.25615 10.34375,3.5 2.62352,1.12192 5.24034,2.47993 7.125,3.90625 1.88466,1.42632 2.84988,2.84485 3.03125,3.65625 0.18133,0.8112 -0.0893,2.46925 -1.1875,4.5625 -1.09821,2.09325 -2.8848,4.46128 -4.78125,6.59375 -3.79291,4.26495 -7.875,7.5625 -7.875,7.5625 l -9.125,7.3125 11.6875,-0.1875 c 0,0 5.26044,-0.0866 10.90625,0.78125 2.82291,0.43393 5.69282,1.11851 7.875,2.03125 2.18218,0.91274 3.46697,2.04177 3.84375,2.78125 0.37702,0.73995 0.51232,2.4165 -0.0312,4.71875 -0.54357,2.30225 -1.66161,5.05465 -2.96875,7.59375 -2.61428,5.07819 -5.78125,9.28125 -5.78125,9.28125 l -7,9.34375 11.28125,-3.09375 c 0,0 5.07026,-1.37207 10.75,-1.9375 2.83987,-0.28272 5.78638,-0.3406 8.125,0 2.33862,0.3406 3.85708,1.09584 4.40625,1.71875 0.54919,0.62293 1.11164,2.23132 1.15625,4.59375 0.0446,2.36243 -0.39455,5.28093 -1.03125,8.0625 -1.27339,5.56314 -3.25,10.4375 -3.25,10.4375 l -4.5,10.78125 10.15625,-5.78125 c 0,0 4.5724,-2.60659 9.9375,-4.5625 2.68255,-0.97796 5.55423,-1.74968 7.90625,-2 2.35202,-0.25032 4.00028,0.12672 4.6875,0.59375 0.6876,0.46729 1.61745,1.84731 2.25,4.125 0.63255,2.27769 0.95367,5.2411 1.03125,8.09375 0.15517,5.7053 -0.5625,10.90625 -0.5625,10.90625 l -1.65625,11.5625 8.40625,-8.125 c 0,0 3.76558,-3.64706 8.46875,-6.875 2.35159,-1.61397 4.91212,-3.11056 7.125,-3.9375 2.21288,-0.82694 3.90503,-0.87545 4.6875,-0.59375 0.78171,0.28143 2.06901,1.41804 3.25,3.46875 1.18099,2.05071 2.21316,4.81671 3,7.5625 1.57369,5.49157 2.1875,10.71875 2.1875,10.71875 l 1.28125,11.59375 6.09375,-9.9375 c 0,0 2.74463,-4.47816 6.5,-8.78125 1.87768,-2.15154 3.9987,-4.24012 5.9375,-5.59375 1.9388,-1.35363 3.58035,-1.82807 4.40625,-1.75 0.8271,0.0782 2.31603,0.83901 3.96875,2.53125 1.65272,1.69224 3.36892,4.1301 4.8125,6.59375 2.88717,4.9273 4.75,9.84375 4.75,9.84375 l 4.125,10.90625 3.4375,-11.15625 c 0,0 1.55825,-5.00023 4.125,-10.09375 1.28337,-2.54676 2.83407,-5.08456 4.375,-6.875 1.54093,-1.79044 2.99082,-2.65111 3.8125,-2.78125 0.82026,-0.12992 2.47957,0.24046 4.5,1.46875 2.02043,1.22829 4.24046,3.15966 6.25,5.1875 4.01909,4.05567 7.0625,8.34375 7.0625,8.34375 l 6.71875,9.5625 0.5625,-11.65625 c 0,0 0.24992,-5.26131 1.46875,-10.84375 0.60941,-2.79122 1.45268,-5.62879 2.5,-7.75 1.04732,-2.12121 2.27034,-3.32698 3.03125,-3.65625 0.76083,-0.32924 2.42424,-0.37619 4.6875,0.3125 2.26326,0.68869 4.95432,2.00213 7.40625,3.46875 4.90386,2.93323 8.90625,6.34375 8.90625,6.34375 l 8.875,7.59375 -2.375,-11.4375 c 0,0 -1.04318,-5.16479 -1.25,-10.875 -0.10341,-2.8551 0.0128,-5.80987 0.5,-8.125 0.48722,-2.31513 1.34475,-3.77298 2,-4.28125 0.65636,-0.50912 2.29319,-0.97741 4.65625,-0.875 2.36306,0.10241 5.2613,0.69199 8,1.5 5.47741,1.61602 10.1875,3.9375 10.1875,3.9375 l 10.5,5.125 -5.125,-10.5 c 0,0 -2.32179,-4.71844 -3.9375,-10.1875 -0.80786,-2.73453 -1.39763,-5.60916 -1.5,-7.96875 -0.10237,-2.35959 0.36501,-3.99878 0.875,-4.65625 0.51023,-0.65779 1.9686,-1.51038 4.28125,-2 2.31265,-0.48962 5.2739,-0.631 8.125,-0.53125 5.7022,0.1995 10.84375,1.25 10.84375,1.25 l 11.4375,2.34375 -7.59375,-8.84375 c 0,0 -3.38722,-4.0108 -6.3125,-8.90625 -1.46264,-2.44773 -2.78272,-5.115 -3.46875,-7.375 -0.68603,-2.26 -0.64293,-3.92392 -0.3125,-4.6875 0.33046,-0.76366 1.53713,-1.98137 3.65625,-3.03125 2.11912,-1.04988 4.9626,-1.91822 7.75,-2.53125 5.5748,-1.22605 10.8125,-1.46875 10.8125,-1.46875 l 11.65625,-0.5625 -9.5625,-6.71875 c 0,0 -4.28808,-3.04341 -8.34375,-7.0625 -2.02784,-2.00954 -3.95921,-4.26082 -5.1875,-6.28125 -1.22829,-2.02043 -1.59867,-3.64849 -1.46875,-4.46875 0.12979,-0.81945 0.98811,-2.27131 2.78125,-3.8125 1.79314,-1.54119 4.32425,-3.09146 6.875,-4.375 5.10149,-2.56709 10.125,-4.125 10.125,-4.125 l 11.1875,-3.4375 -10.9375,-4.125 c 0,0 -4.91645,-1.86283 -9.84375,-4.75 -2.46365,-1.44358 -4.90151,-3.15978 -6.59375,-4.8125 -1.69224,-1.65272 -2.45307,-3.14165 -2.53125,-3.96875 -0.0783,-0.82817 0.39883,-2.46752 1.75,-4.40625 1.35117,-1.93873 3.41481,-4.05999 5.5625,-5.9375 4.29539,-3.75501 8.78125,-6.5 8.78125,-6.5 l 9.9375,-6.125 -11.59375,-1.28125 c 0,0 -5.23595,-0.55903 -10.71875,-2.125 -2.7414,-0.78298 -5.51563,-1.82224 -7.5625,-3 -2.04687,-1.17776 -3.1556,-2.467 -3.4375,-3.25 -0.28144,-0.78174 -0.2336,-2.47109 0.59375,-4.6875 0.82735,-2.21641 2.32323,-4.76933 3.9375,-7.125 3.22854,-4.71134 6.875,-8.5 6.875,-8.5 l 8.125,-8.40625 -11.5625,1.65625 c 0,0 -5.20134,0.74161 -10.90625,0.59375 -2.85245,-0.0739 -5.8169,-0.40134 -8.09375,-1.03125 -2.27685,-0.62991 -3.65843,-1.56347 -4.125,-2.25 -0.46703,-0.68722 -0.84407,-2.33548 -0.59375,-4.6875 0.25032,-2.35202 1.02204,-5.2237 2,-7.90625 1.95591,-5.3651 4.5625,-9.9375 4.5625,-9.9375 l 5.78125,-10.125 -10.78125,4.4375 c 0,0 -4.86587,2.01488 -10.4375,3.28125 -2.78582,0.63318 -5.72724,1.04705 -8.09375,1 -2.36651,-0.0471 -3.97066,-0.60692 -4.59375,-1.15625 -0.62292,-0.54917 -1.37815,-2.06763 -1.71875,-4.40625 -0.3406,-2.33862 -0.28272,-5.31638 0,-8.15625 0.56543,-5.67974 1.9375,-10.71875 1.9375,-10.71875 l 3.09375,-11.28125 -9.34375,7 c 0,0 -4.20306,3.16697 -9.28125,5.78125 -2.5391,1.30714 -5.2915,2.42518 -7.59375,2.96875 -2.30225,0.54357 -3.9788,0.40827 -4.71875,0.0312 -0.74129,-0.37771 -1.86879,-1.66465 -2.78125,-3.84375 -0.91246,-2.1791 -1.5974,-5.05622 -2.03125,-7.875 -0.86771,-5.63757 -0.78125,-10.875 -0.78125,-10.875 l 0.1875,-11.6875 -7.3125,9.125 c 0,0 -3.29755,4.08209 -7.5625,7.875 -2.13247,1.89645 -4.5005,3.68304 -6.59375,4.78125 -2.09325,1.09821 -3.75129,1.36883 -4.5625,1.1875 -0.80923,-0.18088 -2.22965,-1.14381 -3.65625,-3.03125 -1.4266,-1.88744 -2.78417,-4.49746 -3.90625,-7.125 -2.24416,-5.25508 -3.5,-10.375 -3.5,-10.375 l -2.71875,-11.375 z m -2.09375,22.25 c 0.35149,0.93385 0.52101,1.64972 0.9375,2.625 1.28057,2.99868 2.8614,6.13835 4.90625,8.84375 2.04485,2.7054 4.6386,5.18577 8.28125,6 3.64067,0.81378 7.03001,-0.33167 10.03125,-1.90625 3.00124,-1.57458 5.75325,-3.74143 8.1875,-5.90625 0.79885,-0.71043 1.27907,-1.26846 2,-1.96875 0.10854,0.99212 0.0886,1.73264 0.25,2.78125 0.49532,3.21816 1.25387,6.62478 2.5625,9.75 1.30863,3.12522 3.20801,6.18172 6.53125,7.875 3.32459,1.69396 6.88781,1.43531 10.1875,0.65625 3.29969,-0.77906 6.50835,-2.19565 9.40625,-3.6875 0.94361,-0.48578 1.53932,-0.91093 2.40625,-1.40625 -0.14171,0.98542 -0.33269,1.69722 -0.4375,2.75 -0.32274,3.24189 -0.42598,6.73978 0.0625,10.09375 0.48848,3.35397 1.54486,6.78244 4.34375,9.25 2.79872,2.4674 6.32843,3.08884 9.71875,3.15625 3.39032,0.0674 6.85221,-0.49619 10.03125,-1.21875 1.05117,-0.23892 1.74202,-0.51333 2.71875,-0.78125 -0.38715,0.93198 -0.75721,1.58489 -1.125,2.59375 -1.11619,3.06172 -2.10999,6.44147 -2.46875,9.8125 -0.35876,3.37103 -0.15954,6.94555 1.9375,10.03125 2.09751,3.08639 5.35859,4.56507 8.625,5.46875 3.26641,0.90368 6.74347,1.2281 10,1.3125 1.06968,0.0277 1.80671,-0.0755 2.8125,-0.0937 -0.604,0.80331 -1.11448,1.33695 -1.71875,2.21875 -1.84235,2.6885 -3.62685,5.69876 -4.8125,8.875 -1.18565,3.17624 -1.92004,6.67719 -0.65625,10.1875 1.26333,3.50905 4.06378,5.77925 7,7.46875 2.93622,1.6895 6.21365,2.856 9.34375,3.75 1.01493,0.28988 1.75265,0.36282 2.71875,0.59375 -0.77834,0.62263 -1.38987,1.02147 -2.1875,1.71875 -2.45182,2.14337 -4.93752,4.62626 -6.875,7.40625 -1.93748,2.77999 -3.50726,6.00543 -3.15625,9.71875 0.35111,3.71439 2.51213,6.56877 4.9375,8.9375 2.42537,2.36873 5.31316,4.35239 8.125,6 0.91286,0.5349 1.58865,0.81578 2.46875,1.28125 -0.90831,0.40849 -1.61709,0.61801 -2.5625,1.09375 -2.91148,1.46506 -5.92887,3.22764 -8.5,5.4375 -2.57113,2.20986 -4.88493,4.97013 -5.46875,8.65625 -0.58369,3.68531 0.77029,6.97837 2.53125,9.875 1.76096,2.89663 4.09162,5.51875 6.40625,7.8125 0.76362,0.75673 1.37668,1.19627 2.125,1.875 -0.99059,0.17258 -1.73661,0.20775 -2.78125,0.4375 -3.18155,0.69971 -6.55677,1.68287 -9.59375,3.1875 -3.03698,1.50463 -5.95628,3.5771 -7.4375,7 -1.48125,3.42297 -0.98405,6.97697 0,10.21875 0.98405,3.24178 2.58003,6.3303 4.25,9.125 0.55216,0.92404 1.03702,1.49943 1.59375,2.34375 -1.00617,-0.0798 -1.73907,-0.24369 -2.8125,-0.28125 -3.25461,-0.11387 -6.7474,-0.0143 -10.0625,0.6875 -3.3151,0.70185 -6.65181,1.99081 -8.9375,4.9375 -2.28593,2.94701 -2.70934,6.52164 -2.5625,9.90625 0.14684,3.38461 0.92138,6.78409 1.84375,9.90625 0.30036,1.0167 0.61339,1.68182 0.9375,2.625 -0.95039,-0.32642 -1.63114,-0.63506 -2.65625,-0.9375 -3.1258,-0.92222 -6.51926,-1.69696 -9.90625,-1.84375 -3.38699,-0.14679 -6.95813,0.27571 -9.90625,2.5625 -2.94923,2.28765 -4.20787,5.61902 -4.90625,8.9375 -0.69838,3.31848 -0.80552,6.80408 -0.6875,10.0625 0.0388,1.07005 0.16936,1.80908 0.25,2.8125 -0.83711,-0.5519 -1.39757,-1.04649 -2.3125,-1.59375 -2.79831,-1.6738 -5.91188,-3.26276 -9.15625,-4.25 -3.24437,-0.98724 -6.79302,-1.48245 -10.21875,0 -3.42565,1.48241 -5.49867,4.428 -7,7.46875 -1.50133,3.04075 -2.46074,6.37695 -3.15625,9.5625 -0.23004,1.05363 -0.26539,1.81394 -0.4375,2.8125 -0.67873,-0.74832 -1.11827,-1.36138 -1.875,-2.125 -2.29375,-2.31463 -4.91587,-4.64529 -7.8125,-6.40625 -2.89663,-1.76096 -6.18969,-3.11494 -9.875,-2.53125 -3.68389,0.58347 -6.41489,2.90078 -8.625,5.46875 -2.21011,2.56797 -4.00352,5.59235 -5.46875,8.5 -0.47247,0.93758 -0.68758,1.63006 -1.09375,2.53125 -0.46547,-0.8801 -0.74635,-1.55589 -1.28125,-2.46875 -1.64761,-2.81184 -3.63127,-5.69963 -6,-8.125 -2.36873,-2.42537 -5.22311,-4.58638 -8.9375,-4.9375 -3.71559,-0.35122 -6.93884,1.21537 -9.71875,3.15625 -2.77991,1.94088 -5.26306,4.41922 -7.40625,6.875 -0.70138,0.80368 -1.09295,1.43476 -1.71875,2.21875 -0.23311,-0.97188 -0.33232,-1.6974 -0.625,-2.71875 -0.89796,-3.13353 -2.05788,-6.43676 -3.75,-9.375 -1.69212,-2.93824 -3.95841,-5.7362 -7.46875,-7 -3.50958,-1.26353 -7.01359,-0.56107 -10.1875,0.625 -3.17391,1.18607 -6.19022,3.0011 -8.875,4.84375 -0.88314,0.60613 -1.41458,1.11296 -2.21875,1.71875 0.017,-1.00583 0.12284,-1.74277 0.0937,-2.8125 -0.0886,-3.25633 -0.4056,-6.73443 -1.3125,-10 -0.9069,-3.26557 -2.38343,-6.52821 -5.46875,-8.625 -3.0857,-2.09704 -6.66022,-2.29626 -10.03125,-1.9375 -3.37103,0.35876 -6.75078,1.35256 -9.8125,2.46875 -0.99564,0.36297 -1.64151,0.71172 -2.5625,1.09375 0.26529,-0.96313 0.54429,-1.65229 0.78125,-2.6875 0.72686,-3.17548 1.28274,-6.61147 1.21875,-10 -0.064,-3.38853 -0.68871,-6.91988 -3.15625,-9.71875 -2.46755,-2.7989 -5.89603,-3.85527 -9.25,-4.34375 -3.35397,-0.48848 -6.85186,-0.38524 -10.09375,-0.0625 -1.05278,0.10481 -1.76457,0.29579 -2.75,0.4375 0.49532,-0.86693 0.92047,-1.46264 1.40625,-2.40625 1.49185,-2.8979 2.90844,-6.10656 3.6875,-9.40625 0.77906,-3.29969 1.03771,-6.86291 -0.65625,-10.1875 -1.6942,-3.32506 -4.74699,-5.2229 -7.875,-6.53125 -3.12801,-1.30835 -6.52815,-2.06725 -9.75,-2.5625 -1.05878,-0.16275 -1.81141,-0.17221 -2.8125,-0.28125 0.69501,-0.71593 1.26393,-1.17621 1.96875,-1.96875 2.16483,-2.43425 4.33167,-5.18626 5.90625,-8.1875 1.57458,-3.00124 2.72004,-6.39058 1.90625,-10.03125 -0.81374,-3.64047 -3.29769,-6.23612 -6,-8.28125 -2.70231,-2.04513 -5.81761,-3.62552 -8.8125,-4.90625 -0.97405,-0.41654 -1.69234,-0.58596 -2.625,-0.9375 0.85502,-0.52258 1.52233,-0.84257 2.40625,-1.4375 2.70419,-1.82009 5.47691,-3.95296 7.75,-6.46875 2.27309,-2.51579 4.22654,-5.52012 4.34375,-9.25 0.11721,-3.72965 -1.63977,-6.84622 -3.75,-9.5 -2.11023,-2.65378 -4.75961,-4.98211 -7.34375,-6.96875 -0.85442,-0.65686 -1.51445,-1.01271 -2.34375,-1.59375 0.96695,-0.29592 1.70461,-0.42111 2.71875,-0.78125 3.07023,-1.0903 6.29896,-2.44103 9.125,-4.3125 2.82604,-1.87147 5.45915,-4.32361 6.5,-7.90625 1.04112,-3.58355 0.10402,-7.03123 -1.28125,-10.125 -1.38527,-3.09377 -3.36475,-5.96674 -5.375,-8.53125 -0.6648,-0.8481 -1.2157,-1.35661 -1.875,-2.125 1.01239,-0.0463 1.76941,0.003 2.84375,-0.0937 3.24662,-0.29295 6.70241,-0.82741 9.90625,-1.9375 3.20384,-1.11009 6.35048,-2.78808 8.25,-6 1.8994,-3.2117 1.85327,-6.78436 1.28125,-10.125 -0.57202,-3.34064 -1.75356,-6.64175 -3.0625,-9.625 -0.4292,-0.9782 -0.83765,-1.5989 -1.28125,-2.5 0.98445,0.20425 1.69437,0.4227 2.75,0.59375 3.21773,0.5214 6.68341,0.87403 10.0625,0.59375 3.37909,-0.28028 6.8619,-1.14315 9.5,-3.78125 2.6381,-2.6381 3.50429,-6.12267 3.78125,-9.5 0.27696,-3.37733 -0.0681,-6.8483 -0.59375,-10.0625 -0.17335,-1.05994 -0.41822,-1.76207 -0.625,-2.75 0.90901,0.44587 1.54371,0.84994 2.53125,1.28125 2.98695,1.30457 6.28245,2.49419 9.625,3.0625 3.34255,0.56831 6.91399,0.61774 10.125,-1.28125 3.21123,-1.89911 4.8928,-5.04799 6,-8.25 1.1072,-3.20201 1.64865,-6.66307 1.9375,-9.90625 0.0938,-1.05347 0.0488,-1.78706 0.0937,-2.78125 0.75908,0.64807 1.25759,1.19072 2.09375,1.84375 2.5684,2.00588 5.4665,3.96248 8.5625,5.34375 3.096,1.38127 6.54295,2.32193 10.125,1.28125 3.58264,-1.04085 6.03478,-3.70521 7.90625,-6.53125 1.87147,-2.82604 3.25345,-6.02352 4.34375,-9.09375 0.35669,-1.00442 0.48757,-1.72915 0.78125,-2.6875 0.57214,0.81743 0.91696,1.47105 1.5625,2.3125 1.98276,2.5845 4.28623,5.20153 6.9375,7.3125 2.65127,2.11097 5.77042,3.89846 9.5,3.78125 3.72988,-0.11721 6.73421,-2.07066 9.25,-4.34375 2.51579,-2.27309 4.64866,-5.04581 6.46875,-7.75 0.59493,-0.88392 0.91492,-1.55123 1.4375,-2.40625 z"
       style="font-size:medium;font-style:normal;font-variant:normal;font-weight:normal;font-stretch:normal;text-indent:0;text-align:start;text-decoration:none;line-height:normal;letter-spacing:normal;word-spacing:normal;text-transform:none;direction:ltr;block-progression:tb;writing-mode:lr-tb;text-anchor:start;baseline-shift:baseline;color:#000000;fill:#000000;fill-opacity:1;fill-rule:nonzero;stroke:none;stroke-width:8;marker:none;visibility:visible;display:inline;overflow:visible;enable-background:accumulate;font-family:Sans;-inkscape-font-specification:Sans" />
    <g
       id="layer1">
      <g
         id="g5131"
         transform="translate(-982.17251,-244.96014)">
        <path
           style="fill:#e6e6e6;fill-opacity:1;stroke:none"
           id="path5037"
           d="m 1375.6729,624.00063 c -30.7348,0 -58.0373,14.7096 -75.25,37.46875 -14.5938,-9.26757 -31.9011,-14.625 -50.4688,-14.625 -46.8762,0 -85.7683,34.21646 -93.0625,79.03125 -43.0734,8.7073 -75.5312,46.76545 -75.5312,92.40625 0,52.07256 42.2399,94.28125 94.3125,94.28125 21.2357,0 40.8317,-7.0284 56.5937,-18.875 9.1676,2.97269 18.9356,4.59375 29.0938,4.59375 9.8334,0 19.3376,-1.51965 28.25,-4.3125 16.7195,15.10442 38.8812,24.3125 63.1875,24.3125 24.6804,0 47.1627,-9.47919 63.9687,-25 15.1389,10.35953 33.4585,16.40625 53.1875,16.40625 15.6575,0 30.4112,-3.80895 43.4063,-10.5625 6.2741,1.31526 12.7725,2 19.4375,2 52.0725,0 94.2812,-42.20869 94.2812,-94.28125 0,-52.07256 -42.2087,-94.28125 -94.2812,-94.28125 -0.5112,0 -1.022,0.0231 -1.5313,0.0312 -16.7881,-20.34247 -41.9342,-33.52832 -70.1875,-34.28125 -15.0406,-32.09369 -47.6198,-54.3125 -85.4062,-54.3125 z" />
        <path
           style="font-size:medium;font-style:normal;font-variant:normal;font-weight:normal;font-stretch:normal;text-indent:0;text-align:start;text-decoration:none;line-height:normal;letter-spacing:normal;word-spacing:normal;text-transform:none;direction:ltr;block-progression:tb;writing-mode:lr-tb;text-anchor:start;baseline-shift:baseline;color:#000000;fill:#000000;fill-opacity:1;fill-rule:nonzero;stroke:none;stroke-width:8;marker:none;visibility:visible;display:inline;overflow:visible;enable-background:accumulate;font-family:Sans;-inkscape-font-specification:Sans"
           id="path5039"
           d="m 1375.6416,619.98498 c -30.7714,0 -58.1687,14.27114 -76.1875,36.43751 -14.565,-8.53249 -31.4502,-13.5625 -49.5313,-13.5625 -47.8941,0 -87.7571,34.34003 -96.4374,79.74999 -43.6005,10.06429 -76.125,49.07889 -76.125,95.6875 0,54.2341 44.0472,98.28125 98.2812,98.28125 21.3791,0 41.1766,-6.89264 57.3125,-18.5 9.0039,2.71821 18.5237,4.21875 28.4063,4.21875 9.4809,0 18.6317,-1.39656 27.3124,-3.90625 17.2155,14.84941 39.6225,23.90625 64.125,23.90625 24.5985,0 47.0431,-9.1417 64.2813,-24.09375 15.2704,9.77098 33.3842,15.5 52.8437,15.5 15.8142,0 30.7532,-3.78999 44,-10.4375 6.1241,1.19179 12.4177,1.875 18.875,1.875 54.2342,0 98.2813,-44.04716 98.2813,-98.28125 0,-54.17089 -43.9465,-98.17876 -98.0937,-98.28125 -16.9956,-19.74901 -41.7321,-32.65243 -69.4688,-34.06251 -16.1207,-32.27551 -49.3856,-54.53124 -87.875,-54.53124 z m 0,8.00001 c 36.2163,0 67.4131,21.30598 81.8125,52.03123 a 4.0004,4.0004 0 0 0 3.5313,2.3125 c 27.0615,0.72951 51.1144,13.33644 67.1874,32.81251 a 4.0004,4.0004 0 0 0 3.1563,1.46875 c 0.5879,-0.009 1.0784,-0.0312 1.4687,-0.0312 49.9112,0 90.2813,40.37022 90.2813,90.28125 0,49.91103 -40.3702,90.28125 -90.2813,90.28125 -6.4009,0 -12.6477,-0.64501 -18.6562,-1.90625 a 4.0004,4.0004 0 0 0 -2.6562,0.3437 c -12.4377,6.46025 -26.5627,10.125 -41.5626,10.125 -18.9177,0 -36.4342,-5.81995 -50.9374,-15.75 a 4.0004,4.0004 0 0 0 -4.9688,0.375 c -16.1011,14.87414 -37.5599,23.96875 -61.2188,23.96875 -23.2947,0 -44.4854,-8.81452 -60.5,-23.28125 a 4.0004,4.0004 0 0 0 -3.875,-0.84375 c -8.5404,2.67897 -17.6299,4.125 -27.0624,4.125 -9.7392,0 -19.0931,-1.55704 -27.875,-4.40625 a 4.0004,4.0004 0 0 0 -3.6563,0.625 c -15.0964,11.34565 -33.8352,18.0625 -54.1875,18.0625 -49.911,0 -90.2812,-40.37023 -90.2812,-90.28125 0,-43.75519 31.0624,-80.17399 72.3124,-88.5 a 4.0004,4.0004 0 0 0 3.1563,-3.25 c 6.9849,-42.9091 44.1648,-75.68749 89.0937,-75.68749 17.7963,0 34.3388,5.12719 48.3126,13.99998 a 4.0004,4.0004 0 0 0 5.3437,-0.96875 c 16.4857,-21.80894 42.5971,-35.90623 72.0625,-35.90623 z" />
        <path
           style="fill:#cccccc;fill-opacity:1;stroke:none"
           id="path5041"
           d="m 1374.3291,636.76624 c -35.258,0 -65.6322,21.4416 -79.5625,52.31249 0.1075,0.0695 0.2052,0.14877 0.3125,0.21875 16.0094,-21.79042 41.4046,-35.87499 70,-35.87499 28.6826,0 54.1519,14.18413 70.1563,36.09374 -0.2189,0.039 -0.4381,0.0844 -0.6563,0.125 3.4635,4.85882 6.467,10.07566 8.9687,15.59375 5.4214,0.15107 10.7326,0.80256 15.875,1.90625 0.1567,0.0322 0.3122,0.0606 0.4688,0.0937 12.6482,2.78767 24.2976,8.32556 34.3438,16 -0.1341,0.0335 -0.2725,0.0598 -0.4063,0.0937 5.1962,3.72848 9.9347,7.97387 14.1563,12.59375 0.5101,-0.007 1.0191,-0.0312 1.5312,-0.0312 52.1643,0 94.4375,38.20068 94.4375,85.3125 0,12.12575 -2.7939,23.64934 -7.8437,34.09375 11.1935,-14.01981 17.8124,-31.20779 17.8124,-49.8125 0,-47.11182 -42.2732,-85.3125 -94.4374,-85.3125 -0.4257,0 -0.857,0.0262 -1.2813,0.0312 -15.7922,-18.91107 -38.8525,-31.10549 -64.7187,-31.96875 -14.1021,-30.40817 -44.229,-51.46874 -79.1563,-51.46874 z m -123.9375,21.125 c -2.2098,-0.036 -4.4141,0.0385 -6.6562,0.1875 -34.2585,2.27702 -62.2544,25.82145 -73.0626,57.59374 13.6814,-23.05874 37.3916,-39.05046 65.3126,-40.90626 16.4365,-1.09247 32.1034,2.86133 45.5937,10.59375 3.2767,-5.23997 7.1138,-10.08606 11.375,-14.46875 -12.4925,-8.03158 -27.0938,-12.74782 -42.5625,-12.99998 z m 128.625,29.84374 c -24.8685,0.0657 -47.7566,10.09867 -64.1562,26.53125 1.8694,1.34176 3.7154,2.71725 5.4687,4.1875 17.6229,-12.54099 39.9812,-18.89233 63.5,-16.25 49.6063,5.57324 85.4334,49.04093 80.0313,97.125 -0.6719,5.97927 -1.9321,11.77416 -3.75,17.28125 5.0969,-9.40345 8.4577,-19.90123 9.7187,-31.125 5.4022,-48.08407 -30.425,-91.58301 -80.0313,-97.15625 -3.6199,-0.4067 -7.2286,-0.60314 -10.7812,-0.59375 z m -151.9375,25.21875 c -6.9318,0.005 -13.9732,0.79948 -21.0313,2.4375 -20.4654,4.74958 -37.7435,15.89577 -50.0624,30.71875 0.8633,-4.60055 2.1185,-9.05218 3.6874,-13.375 -26.6639,6.9561 -48.4359,25.43551 -59.3124,49.59375 12.852,-17.27652 31.9937,-29.8648 54.2187,-34.5 -12.4771,15.78433 -19.4749,35.48302 -19,56 5.4198,-34.77149 32.1285,-64.74041 69.4687,-73.40625 22.6976,-5.26761 45.308,-1.73598 64.0938,8.3125 4.4141,-2.54626 9.125,-4.73896 14.0312,-6.5625 -15.57,-12.21727 -35.2984,-19.23304 -56.0937,-19.21875 z" />
      </g>
    </g>
  </g>
</svg>
